<svg version="1.1" height="21" id="Layer_1" xmlns="http://www.w3.org/2000/svg" xmlns:xlink="http://www.w3.org/1999/xlink" x="0px" y="0px" viewBox="0 0 18 20" style="enable-background:new 0 0 18 20;" xml:space="preserve">
                                        
                                        <polygon points="12,11 10,11 10,9 8,9 8,11 6,11 6,13 8,13 8,15 10,15 10,13 12,13 "></polygon>
                                    <path d="M14,4V3c0-1.7-1.3-3-3-3H7C5.3,0,4,1.3,4,3v1H0v12c0,2.2,1.8,4,4,4h10c2.2,0,4-1.8,4-4V4H14z M6,3c0-0.6,0.4-1,1-1h4
                                            c0.6,0,1,0.4,1,1v1H6V3z M16,16c0,1.1-0.9,2-2,2H4c-1.1,0-2-0.9-2-2V6h2h10h2V16z"></path></svg>