<svg xmlns="http://www.w3.org/2000/svg" width="20" height="20" viewBox="0 0 20 20" >
<path id="call-icn" d="M6.933,5.222a13.681,13.681,0,0,0,.5,2.878L6.1,9.433a16.473,16.473,0,0,1-.844-4.211H6.933M17.889,18.578a14.17,14.17,0,0,0,2.889.5v1.656a17.14,17.14,0,0,1-4.222-.833l1.333-1.322M8,3H4.111A1.114,1.114,0,0,0,3,4.111,18.887,18.887,0,0,0,21.889,23,1.114,1.114,0,0,0,23,21.889V18.011A1.114,1.114,0,0,0,21.889,16.9a12.674,12.674,0,0,1-3.967-.633.933.933,0,0,0-.344-.056,1.138,1.138,0,0,0-.789.322l-2.444,2.444a16.832,16.832,0,0,1-7.322-7.322L9.467,9.211a1.115,1.115,0,0,0,.278-1.133,12.623,12.623,0,0,1-.633-3.967A1.114,1.114,0,0,0,8,3Z" transform="translate(-3 -3)" fill="#FF0000"></path>
</svg>