<?xml version="1.0" encoding="utf-8"?>
<!-- Generator: Adobe Illustrator 22.0.0, SVG Export Plug-In . SVG Version: 6.00 Build 0)  -->
<svg version="1.1" id="Layer_1" xmlns="http://www.w3.org/2000/svg" xmlns:xlink="http://www.w3.org/1999/xlink" x="0px" y="0px"
	 viewBox="0 0 79 34" style="enable-background:new 0 0 79 34;" xml:space="preserve">
<style type="text/css">
	.st0{fill:#FFFFFF;}
</style>
<g>
	<path class="st0" d="M60.4,0.3c-9.2,0-16.7,7.5-16.7,16.7s7.5,16.7,16.7,16.7c9.2,0,16.7-7.5,16.7-16.7S69.6,0.3,60.4,0.3z
		 M60.4,26.6c-5.1,0-9.3-4.3-9.3-9.6c0-5.3,4.2-9.6,9.3-9.6c5.1,0,9.3,4.3,9.3,9.6C69.7,22.3,65.5,26.6,60.4,26.6z"/>
	<path class="st0" d="M39.5,1.1l-4.8,2.4c-1.5,0.8-2.5,2.3-2.5,4v19.2h-7.7V7.9c0-0.2-0.2-0.3-0.4-0.2l-4.8,2.4
		c-1.5,0.8-2.5,2.3-2.5,4v12.6H9.1V14.3c0-0.2-0.2-0.3-0.4-0.2L4,16.4c-1.6,0.8-2.6,2.4-2.6,4.2v6v6.2v0.3h0.3h7.2h7.9h7.7h11
		c2.4,0,4.3-1.9,4.4-4.3h0v-0.2v-2V1.3C39.9,1.1,39.7,1,39.5,1.1z"/>
</g>
</svg>
