<svg xmlns="http://www.w3.org/2000/svg" width="25" height="25" viewBox="0 0 30 30" >
        <path class="st0" d="M15.2,26.4L2.5,14.2C-0.7,11.2-0.9,6,2.2,2.8c0.1-0.1,0.2-0.2,0.3-0.3c3.4-3.2,8.8-3.2,12.2,0l0.5,0.4l0.3-0.3
            c3.4-3.2,8.8-3.2,12.2,0C29.3,4,30.2,6,30.3,8.2c0.1,2.2-0.7,4.2-2.2,5.8c-0.1,0.1-0.2,0.2-0.3,0.3L15.2,26.4z M8.6,2
            C7,2,5.3,2.6,3.9,3.9C3.8,4,3.8,4,3.7,4.1c-2.3,2.5-2.2,6.3,0.3,8.7l11.3,10.8l11.2-10.7c0.1-0.1,0.2-0.2,0.3-0.3
            c1.1-1.2,1.7-2.7,1.7-4.4c0-1.6-0.7-3.2-1.9-4.3c-2.7-2.5-6.8-2.5-9.5,0l-1.7,1.6l-1.8-1.8C12,2.6,10.3,2,8.6,2z" fill="#fff"></path>
    </svg>