<svg version="1.1" id="Layer_1" xmlns="http://www.w3.org/2000/svg" xmlns:xlink="http://www.w3.org/1999/xlink" x="0px" y="0px" viewBox="0 0 26 27" style="enable-background:new 0 0 26 27;" xml:space="preserve" width="20" height="20">
                                    <style type="text/css">
                                        .st0{fill:#FFFFFF;}
                                    </style>
                                    <g>
                                        <g>
                                            <g>
                                                <path class="st0" d="M2.1,26.6l-2-0.3c1.2-7.1,7.9-11.9,15-10.7c5.5,0.9,9.8,5.2,10.7,10.7l-2,0.3c-0.8-4.7-4.4-8.3-9.1-9.1
                                                    C8.8,16.5,3.1,20.6,2.1,26.6z"></path>
                                            </g>
                                        </g>
                                        <g>
                                            <g>
                                                <path class="st0" d="M13,12.3c-3.3,0-5.9-2.6-5.9-5.9h0c0-1.6,0.6-3.1,1.7-4.2c1.1-1.1,2.6-1.8,4.1-1.8c1.6,0,3.1,0.6,4.2,1.7
                                                    c1.1,1.1,1.8,2.6,1.8,4.1v0.2C18.9,9.6,16.3,12.3,13,12.3z M13,2.4C13,2.4,13,2.4,13,2.4c-1.1,0-2.1,0.4-2.8,1.2S9.1,5.3,9.1,6.3
                                                    v0c0,1,0.4,2,1.1,2.8C11,9.8,12,10.3,13,10.3c2.2,0,3.9-1.7,3.9-3.9V6.2c0-1-0.4-2-1.2-2.7C15,2.8,14,2.4,13,2.4z"></path>
                                            </g>
                                        </g>
                                    </g>
                    </svg>