<svg xmlns="http://www.w3.org/2000/svg" xmlns:xlink="http://www.w3.org/1999/xlink" x="0px" y="0px" width="19px" height="19px" viewBox="0 0 19.468 18.96"><path d="M19.149,17.229l-4.06-3.782c1.065-1.407,1.705-3.153,1.705-5.05C16.794,3.767,13.027,0,8.397,0S0,3.767,0,8.396s3.767,8.396,8.397,8.396c2.014,0,3.863-0.714,5.311-1.9l4.078,3.798c0.193,0.18,0.438,0.269,0.682,0.269c0.268,0,0.535-0.107,0.732-0.318C19.576,18.237,19.554,17.604,19.149,17.229z M2,8.396C2,4.869,4.87,2,8.397,2s6.397,2.869,6.397,6.396s-2.87,6.396-6.397,6.396S2,11.924,2,8.396z"></path></svg>